<svg width="145" height="82" viewBox="0 0 145 82" fill="none" xmlns="http://www.w3.org/2000/svg">
<path d="M1.85547 41.0017C1.85547 18.5601 34.6437 1.84912 72.4917 1.84912C110.34 1.84912 143.145 18.5601 143.145 41.0017C143.145 63.4502 110.34 80.12 72.4917 80.12C34.6437 80.12 1.85547 63.4502 1.85547 41.0017Z" fill="white"/>
<path fill-rule="evenodd" clip-rule="evenodd" d="M72.4916 0C112.515 0 145 18.3718 145 41.0017C145 63.6351 112.515 82 72.4916 82C32.4846 82 0 63.6351 0 41.0017C0 18.3718 32.4846 0 72.4916 0ZM72.4916 3.69833C34.5085 3.69833 3.66 20.4435 3.66 41.0017C3.66 61.5685 34.5085 78.2743 72.4916 78.2743C110.475 78.2743 141.323 61.5685 141.323 41.0017C141.323 20.4435 110.475 3.69833 72.4916 3.69833ZM59.7575 44.938H45.4886C45.6572 48.5028 47.6306 50.1551 50.5822 50.1551C52.7748 50.1551 54.2759 48.9017 54.6638 47.6399H59.3358C58.1383 51.9529 54.6638 53.9493 50.3798 53.9493C44.3079 53.9493 40.5299 49.7082 40.5299 43.6505C40.5299 37.7828 44.5272 33.314 50.3798 33.314C56.9577 33.314 60.1285 38.918 59.7575 44.938ZM50.2449 37.0089C47.2764 37.0089 45.7584 39.0139 45.5223 41.5787H54.7819C54.4277 38.8409 53.2977 37.0089 50.2449 37.0089ZM121.539 44.938H107.27C107.422 48.5028 109.412 50.1551 112.347 50.1551C114.556 50.1551 116.057 48.9017 116.445 47.6399H121.117C119.92 51.9529 116.445 53.9493 112.161 53.9493C106.072 53.9493 102.311 49.7082 102.311 43.6505C102.311 37.7828 106.309 33.314 112.161 33.314C118.739 33.314 121.91 38.918 121.539 44.938ZM112.009 37.0089C109.058 37.0089 107.54 39.0139 107.287 41.5787H116.563C116.209 38.8409 115.079 37.0089 112.009 37.0089ZM15.5676 53.4185H20.8637V41.7568H32.2991V53.4185H37.5951V26.3334H32.2991V37.4233H20.8637V26.3334H15.5676V53.4185ZM62.6754 53.4185H67.6678V42.8303C67.6678 38.8546 69.0508 37.2264 71.9181 37.2264C74.3806 37.2264 75.4938 38.817 75.4938 42.0342V53.4185H80.4694V41.3784C80.4694 36.5329 79.0526 33.314 73.4023 33.314C71.176 33.314 68.8484 34.3755 67.516 36.5706H67.3979V33.8448H62.6754V53.4185ZM84.7197 53.4185H89.6953V42.8183L97.049 53.4185H103.239L95.1431 42.4348L102.311 33.8448H96.3743L89.6953 42.2841V26.3334H84.7197V53.4185ZM124.457 53.4185H129.432V26.3334H124.457V53.4185Z" fill="#EC1B23"/>
</svg>
